<svg width="608" height="497" viewBox="0 0 456 372.75" xmlns="http://www.w3.org/2000/svg" xmlns:xlink="http://www.w3.org/1999/xlink">
<g id="graph0" class="graph" transform="translate(3.703798626725188,370.0892913255652) scale(0.31467888317628206)">
<polygon fill="white" stroke="none" points="-4,4 -4,-588.15 1246.83,-588.15 1246.83,4 -4,4"/>
<!-- Start -->
<g id="node1" class="node">
<title>Start</title>
<ellipse fill="none" stroke="black" cx="851.37" cy="-554.88" rx="29.28" ry="29.28"/>
<text text-anchor="middle" x="851.37" y="-550.68" font-family="Times,serif" font-size="14.00">Start</text>
</g>
<!-- Sleeping -->
<g id="node4" class="node">
<title>Sleeping</title>
<polygon fill="none" stroke="black" points="883.87,-472.8 818.88,-472.8 818.88,-436.8 883.87,-436.8 883.87,-472.8"/>
<text text-anchor="middle" x="851.37" y="-450.6" font-family="Times,serif" font-size="14.00">Sleeping</text>
</g>
<!-- Start&#45;&gt;Sleeping -->
<g id="edge1" class="edge">
<title>Start-&gt;Sleeping</title>
<path fill="none" stroke="black" d="M851.37,-525.24C851.37,-512.48 851.37,-497.46 851.37,-484.67"/>
<polygon fill="black" stroke="black" points="854.87,-484.74 851.37,-474.74 847.87,-484.74 854.87,-484.74"/>
<text text-anchor="middle" x="883.84" y="-495" font-family="Times,serif" font-size="14.00">Initial State</text>
</g>
<!-- Studying -->
<g id="node2" class="node">
<title>Studying</title>
<polygon fill="none" stroke="black" points="780.66,-237.6 714.09,-237.6 714.09,-201.6 780.66,-201.6 780.66,-237.6"/>
<text text-anchor="middle" x="747.37" y="-215.4" font-family="Times,serif" font-size="14.00">Studying</text>
</g>
<!-- Resting -->
<!-- Resting -->
<g id="node5" class="node">
<title>Resting</title>
<polygon fill="none" stroke="black" points="741.76,-36 682.98,-36 682.98,0 741.76,0 741.76,-36"/>
<text text-anchor="middle" x="712.37" y="-13.8" font-family="Times,serif" font-size="14.00">Resting</text>
</g>
<!-- Studying&#45;&gt;Resting -->
<g id="edge10" class="edge">
<title>Studying-&gt;Eating</title>
<path fill="none" stroke="black" d="M718.04,-238.03C712.35,-240.73 706.3,-243.17 700.37,-244.8 637.43,-262.11 460.64,-225.34 407.17,-262.8 399.93,-267.87 391.96,-286.96 386.09,-303.71"/>
<polygon fill="black" stroke="black" points="382.91,-302.19 383.04,-312.78 389.55,-304.42 382.91,-302.19"/>
<text text-anchor="middle" x="468.47" y="-283.8" font-family="Times,serif" font-size="14.00">weekday &amp; hour = 13</text>
<text text-anchor="middle" x="468.47" y="-267" font-family="Times,serif" font-size="14.00"> weekend&amp;hour = 15</text>
</g>
<!-- Going -->
<g id="node6" class="node">
<title>Going</title>
<polygon fill="none" stroke="black" points="594.37,-124.8 540.37,-124.8 540.37,-88.8 594.37,-88.8 594.37,-124.8"/>
<text text-anchor="middle" x="567.37" y="-102.6" font-family="Times,serif" font-size="14.00">Going</text>
</g><g id="edge13" class="edge">
<title>Studying-&gt;Sleeping</title>
<path fill="none" stroke="black" d="M780.87,-231.12C795.97,-237.7 812.39,-247.84 821.37,-262.8 826.39,-271.15 822.52,-340.76 823.92,-350.4 827.69,-376.33 835.64,-405.09 842.02,-425.68"/>
<polygon fill="black" stroke="black" points="838.64,-426.58 845,-435.05 845.31,-424.46 838.64,-426.58"/>
<text text-anchor="middle" x="852.1" y="-328.2" font-family="Times,serif" font-size="14.00">3&gt;hour&gt;1</text>
</g>
<!-- Studying&#45;&gt;Going -->
<g id="edge11" class="edge">
<title>Studying-&gt;Going</title>
<path fill="none" stroke="black" d="M717.46,-201.17C711.92,-198.54 706.08,-196.13 700.37,-194.4 666.08,-184.03 564.05,-203.11 540.17,-176.4 529.56,-164.53 535.67,-148.01 544.76,-134.16"/>
<polygon fill="black" stroke="black" points="547.42,-136.45 550.47,-126.31 541.76,-132.33 547.42,-136.45"/>
<text text-anchor="middle" x="601.47" y="-155.4" font-family="Times,serif" font-size="14.00">weekday &amp; hour = 16</text>
</g><g id="edge12" class="edge">
<title>Studying-&gt;Resting</title>
<path fill="none" stroke="black" d="M780.99,-218.36C812.41,-216.12 857.77,-207.29 880.37,-176.4 889.19,-164.35 882.77,-157.54 880.37,-142.8 876.32,-117.83 879.22,-107.68 862.37,-88.8 833.51,-56.45 786.54,-37.98 752.85,-28.27"/>
<polygon fill="black" stroke="black" points="754,-24.96 743.43,-25.71 752.16,-31.71 754,-24.96"/>
<text text-anchor="middle" x="1010.81" y="-111" font-family="Times,serif" font-size="14.00">weekday &amp; 18&lt;=hour&lt;24orhour=0 &amp; random4</text>
<text text-anchor="middle" x="1010.81" y="-94.2" font-family="Times,serif" font-size="14.00"> weekend &amp;random5</text>
</g>
<!-- Eating -->
<g id="node3" class="node">
<title>Eating</title>
<polygon fill="none" stroke="black" points="404.37,-350.4 350.37,-350.4 350.37,-314.4 404.37,-314.4 404.37,-350.4"/>
<text text-anchor="middle" x="377.37" y="-328.2" font-family="Times,serif" font-size="14.00">Eating</text>
</g>
<!-- Eating&#45;&gt;Studying -->
<g id="edge4" class="edge">
<title>Eating-&gt;Studying</title>
<path fill="none" stroke="black" d="M404.83,-331.16C437.98,-329.62 494.16,-322.9 533.37,-296.4 548.4,-286.25 541.02,-272.22 556.51,-262.8 611.57,-229.33 638.81,-263.84 700.37,-244.8 702.48,-244.15 704.6,-243.41 706.72,-242.6"/>
<polygon fill="black" stroke="black" points="708,-245.86 715.8,-238.69 705.23,-239.43 708,-245.86"/>
<text text-anchor="middle" x="689.81" y="-275.4" font-family="Times,serif" font-size="14.00">weekday &amp; 18&lt;=hour&lt;24orhour=0 &amp; random4</text>
</g>
<!-- Eating&#45;&gt;Resting -->

<g id="edge5" class="edge">
<title>Eating-&gt;Going</title>
<path fill="none" stroke="black" d="M375.98,-314.02C375.74,-298.47 378.07,-276.14 391.37,-262.8 419.26,-234.84 446.89,-268.63 478.37,-244.8 519.11,-213.97 500.89,-183.8 531.37,-142.8 533.73,-139.63 536.39,-136.48 539.16,-133.45"/>
<polygon fill="black" stroke="black" points="541.59,-135.97 546.07,-126.37 536.58,-131.08 541.59,-135.97"/>
<text text-anchor="middle" x="602.35" y="-232.2" font-family="Times,serif" font-size="14.00">Weekend &amp; hour=16 &amp; random3</text>
<text text-anchor="middle" x="602.35" y="-215.4" font-family="Times,serif" font-size="14.00">weekday &amp; hour ==16</text>
<text text-anchor="middle" x="602.35" y="-198.6" font-family="Times,serif" font-size="14.00"> weekday &amp; hour=8</text>
</g><g id="edge2" class="edge">
<title>Sleeping-&gt;Eating</title>
<path fill="none" stroke="black" d="M818.62,-452.18C768.04,-449.07 668.2,-440.55 586.33,-418.8 524.27,-402.31 456.05,-371.94 414.98,-352.22"/>
<polygon fill="black" stroke="black" points="416.53,-349.08 406,-347.86 413.47,-355.38 416.53,-349.08"/>
<text text-anchor="middle" x="691.39" y="-406.2" font-family="Times,serif" font-size="14.00">7&lt;=hour&lt;= 9 &amp; weekday &amp; random1</text>
<text text-anchor="middle" x="691.39" y="-389.4" font-family="Times,serif" font-size="14.00">Weekend &amp; hour = 10 &amp; random2</text>
<text text-anchor="middle" x="691.39" y="-372.6" font-family="Times,serif" font-size="14.00">Weekend &amp; hour = 11</text>
</g><g id="edge3" class="edge">
<title>Sleeping-&gt;Going</title>
<path fill="none" stroke="black" d="M857.56,-436.52C864.48,-416.22 875.25,-381.37 879.37,-350.4 891.87,-256.43 902.11,-204.77 830.37,-142.8 826.15,-139.15 677.73,-120.99 605.75,-112.36"/>
<polygon fill="black" stroke="black" points="606.33,-108.9 595.98,-111.19 605.5,-115.85 606.33,-108.9"/>
<text text-anchor="middle" x="993.39" y="-275.4" font-family="Times,serif" font-size="14.00">7&lt;=hour&lt;= 9 &amp; weekday &amp; random1</text>
</g><!-- S -->
<!-- Going&#45;&gt;Studying -->

<!-- Going&#45;&gt;Studying -->
<!-- Going&#45;&gt;Studying -->
<!-- Going&#45;&gt;Studying -->
<g id="edge7" class="edge">
<title>Going-&gt;Studying</title>
<path fill="none" stroke="black" d="M594.8,-112.67C616.02,-117.51 645.25,-126.61 666.37,-142.8 680.77,-153.83 676.87,-163.41 689.51,-176.4 695.79,-182.85 703.15,-189.03 710.47,-194.58"/>
<polygon fill="black" stroke="black" points="708.27,-197.3 718.42,-200.34 712.38,-191.64 708.27,-197.3"/>
<text text-anchor="middle" x="760.8" y="-155.4" font-family="Times,serif" font-size="14.00">weekday &amp; hour = 8 or 9</text>
</g>
<g id="edge6" class="edge">
<title>Eating-&gt;Resting</title>
<path fill="none" stroke="black" d="M350.18,-328.45C251.82,-316.69 -74.98,-267.6 16.01,-142.8 93.94,-35.9 534.01,-21.25 671.4,-19.29"/>
<polygon fill="black" stroke="black" points="671.15,-22.79 681.11,-19.17 671.07,-15.79 671.15,-22.79"/>
<text text-anchor="middle" x="150.56" y="-163.8" font-family="Times,serif" font-size="14.00">weekday &amp; 18&lt;=hour&lt;24orhour=0 &amp; random4 </text>
<text text-anchor="middle" x="150.56" y="-147" font-family="Times,serif" font-size="14.00"> weekend</text>
</g>
<!-- g -->

<g id="edge16" class="edge">
<title>Resting-&gt;Eating</title>
<path fill="none" stroke="black" d="M682.6,-23.4C596.39,-36.8 349.73,-80.07 303.17,-142.8 261.25,-199.29 304.38,-236.57 341.37,-296.4 343.35,-299.59 345.67,-302.69 348.17,-305.65"/>
<polygon fill="black" stroke="black" points="345.61,-308.04 355.01,-312.93 350.71,-303.24 345.61,-308.04"/>
<text text-anchor="middle" x="360.97" y="-155.4" font-family="Times,serif" font-size="14.00">weekend&amp;hour = 15</text>
</g>

<g id="edge8" class="edge">
<title>Going-&gt;Eating</title>
<path fill="none" stroke="black" d="M539.98,-122.7C511.31,-137.82 464.68,-161.13 422.37,-176.4 392.08,-187.34 371.92,-168.95 352.17,-194.4 327.51,-226.19 345.55,-274.53 361.2,-304.47"/>
<polygon fill="black" stroke="black" points="357.96,-305.84 365.84,-312.92 364.09,-302.47 357.96,-305.84"/>
<text text-anchor="middle" x="413.47" y="-215.4" font-family="Times,serif" font-size="14.00">weekday &amp; hour = 17</text>
</g>
<!-- Ea -->
<g id="edge14" class="edge">
<title>Resting-&gt;Sleeping</title>
<path fill="none" stroke="black" d="M742.09,-21.26C846.08,-29.58 1187.37,-60.32 1187.37,-105.8 1187.37,-333.4 1187.37,-333.4 1187.37,-333.4 1187.37,-394.69 986.72,-433.15 895.54,-447.47"/>
<polygon fill="black" stroke="black" points="895.05,-444 885.7,-448.98 896.11,-450.92 895.05,-444"/>
<text text-anchor="middle" x="1215.1" y="-215.4" font-family="Times,serif" font-size="14.00">3&gt;hour&gt;1</text>
</g><g id="edge15" class="edge">
<title>Resting-&gt;Studying</title>
<path fill="none" stroke="black" d="M711.15,-36.43C710.52,-60.02 713.24,-101.78 737.47,-124.8 769.54,-155.28 807.06,-108.8 835.37,-142.8 844.93,-154.27 843.33,-163.76 835.37,-176.4 825.6,-191.93 808.35,-201.87 791.7,-208.17"/>
<polygon fill="black" stroke="black" points="790.71,-204.81 782.36,-211.33 792.95,-211.44 790.71,-204.81"/>
<text text-anchor="middle" x="798.83" y="-111" font-family="Times,serif" font-size="14.00">weekday&amp;3&gt;hour&gt;1</text>
<text text-anchor="middle" x="798.83" y="-94.2" font-family="Times,serif" font-size="14.00"> weekend &amp; random5</text>
</g>
<!-- ing -->

<!-- R -->

<!-- Going&#45;&gt;Resting -->
<g id="edge9" class="edge">
<title>Going-&gt;Resting</title>
<path fill="none" stroke="black" d="M594.65,-89.47C616.86,-76.18 648.49,-57.24 673.37,-42.35"/>
<polygon fill="black" stroke="black" points="675.15,-45.36 681.93,-37.22 671.56,-39.36 675.15,-45.36"/>
<text text-anchor="middle" x="678.25" y="-58.2" font-family="Times,serif" font-size="14.00">weekday</text>
</g>
</g>
</svg>